<svg width="92" height="66" viewBox="0 0 92 66" fill="none" xmlns="http://www.w3.org/2000/svg">
<g clip-path="url(#clip0_360_6699)">
<path d="M72.1455 38.6979H83.5686V36.4258H74.4192V21.7551H72.1455V38.6979Z" fill="#1F2937"/>
<path d="M67.5862 36.4259H61.5362V36.4383H55.9409V38.698H67.5862V36.4259Z" fill="#1F2937"/>
<path d="M67.4935 28.9549V31.2441L58.7709 31.2566H58.6709L55.9409 31.2628V28.8988H58.6297" fill="#1F2937"/>
<path d="M68.066 24.0506L68.0777 21.7551H55.9409V24.0818" fill="#1F2937"/>
<path d="M35.6951 38.698H24.0498V36.4383H29.6436V36.4259H35.6951V38.698Z" fill="#1F2937"/>
<path d="M26.7385 28.9549V28.8988H24.0498V31.2628H26.7385V31.2441H35.6009V28.9549H26.7385Z" fill="#1F2937"/>
<path d="M24.0498 24.0818V21.7551H36.1852V24.0148H26.7385V24.0818H24.0498Z" fill="#1F2937"/>
<path d="M13.3509 24.0148H8.07202V21.7551H20.7872V24.0148H15.6187V38.6979H13.3509V24.0148Z" fill="#1F2937"/>
<path d="M43.6509 38.4502L53.6303 21.7178L42.8032 34.2223L43.6509 38.4502Z" fill="#1F2937"/>
<path d="M64.1953 6.88501L42.5354 32.5579L38.7473 18.0961L40.999 18.121L43.2433 26.8869L64.1953 6.88501Z" fill="#FF3434"/>
</g>
<path d="M37.2196 51.9455C36.7831 51.4905 36.2451 51.263 35.6056 51.263C34.9662 51.263 34.4251 51.4905 33.9824 51.9455C33.5459 52.4005 33.3276 52.9539 33.3276 53.6056C33.3276 54.2512 33.5459 54.8015 33.9824 55.2565C34.4251 55.7115 34.9662 55.939 35.6056 55.939C36.2451 55.939 36.7831 55.7115 37.2196 55.2565C37.6623 54.8015 37.8837 54.2512 37.8837 53.6056C37.8837 52.9539 37.6623 52.4005 37.2196 51.9455ZM38.022 55.9851C37.3703 56.6184 36.5648 56.9351 35.6056 56.9351C34.6465 56.9351 33.841 56.6184 33.1892 55.9851C32.5375 55.3457 32.2116 54.5525 32.2116 53.6056C32.2116 52.6526 32.5375 51.8594 33.1892 51.2261C33.841 50.5866 34.6465 50.2669 35.6056 50.2669C36.5648 50.2669 37.3703 50.5866 38.022 51.2261C38.6738 51.8594 38.9997 52.6526 38.9997 53.6056C38.9997 54.5525 38.6738 55.3457 38.022 55.9851ZM40.8063 54.2143V56.8705H39.7734V51.9639H40.8063V52.8585C40.9724 52.5573 41.1999 52.3205 41.4888 52.1484C41.784 51.9762 42.1006 51.8901 42.4388 51.8901C42.9922 51.8901 43.4379 52.0592 43.7761 52.3974C44.1204 52.7356 44.2926 53.2244 44.2926 53.8638V56.8705H43.2596V54.1774C43.2596 53.2736 42.8846 52.8217 42.1344 52.8217C41.7778 52.8217 41.4673 52.9416 41.2029 53.1813C40.9385 53.415 40.8063 53.7593 40.8063 54.2143ZM46.3173 56.8705H45.2844V50.0271H46.3173V56.8705ZM48.3967 56.8705H47.3638V51.9639H48.3967V56.8705ZM47.4283 50.9863C47.2992 50.8572 47.2347 50.7035 47.2347 50.5252C47.2347 50.3469 47.2992 50.1931 47.4283 50.064C47.5575 49.9349 47.7112 49.8703 47.8895 49.8703C48.0678 49.8703 48.2215 49.9349 48.3506 50.064C48.4797 50.1931 48.5443 50.3469 48.5443 50.5252C48.5443 50.7035 48.4797 50.8572 48.3506 50.9863C48.2215 51.1154 48.0678 51.18 47.8895 51.18C47.7112 51.18 47.5575 51.1154 47.4283 50.9863ZM50.4762 54.2143V56.8705H49.4432V51.9639H50.4762V52.8585C50.6422 52.5573 50.8697 52.3205 51.1586 52.1484C51.4538 51.9762 51.7704 51.8901 52.1086 51.8901C52.662 51.8901 53.1078 52.0592 53.4459 52.3974C53.7902 52.7356 53.9624 53.2244 53.9624 53.8638V56.8705H52.9294V54.1774C52.9294 53.2736 52.5544 52.8217 51.8043 52.8217C51.4476 52.8217 51.1371 52.9416 50.8727 53.1813C50.6084 53.415 50.4762 53.7593 50.4762 54.2143ZM59.5195 54.8691H55.6736C55.6981 55.2258 55.8611 55.5147 56.1624 55.7361C56.4636 55.9513 56.808 56.0589 57.1953 56.0589C57.8102 56.0589 58.2775 55.8652 58.5972 55.4778L59.1875 56.1234C58.6587 56.6707 57.97 56.9443 57.1215 56.9443C56.4329 56.9443 55.8457 56.7168 55.36 56.2618C54.8804 55.8006 54.6406 55.1858 54.6406 54.4172C54.6406 53.6425 54.8865 53.0276 55.3784 52.5726C55.8703 52.1176 56.4483 51.8901 57.1123 51.8901C57.7825 51.8901 58.3513 52.093 58.8186 52.4989C59.2858 52.8985 59.5195 53.4519 59.5195 54.159V54.8691ZM55.6736 54.0575H58.4865C58.4865 53.6456 58.3574 53.3289 58.0992 53.1076C57.8409 52.8862 57.5212 52.7755 57.14 52.7755C56.7649 52.7755 56.4268 52.8924 56.1255 53.126C55.8242 53.3535 55.6736 53.664 55.6736 54.0575Z" fill="#FF3434"/>
<defs>
<clipPath id="clip0_360_6699">
<rect width="75.4964" height="31.813" fill="white" transform="translate(8.07202 6.88489)"/>
</clipPath>
</defs>
</svg>
