<svg width="138" height="58" viewBox="0 0 138 58" fill="none" xmlns="http://www.w3.org/2000/svg">
<g id="Layer_1" clip-path="url(#clip0_655_412)">
<path id="Vector" d="M116.771 58H137.5V53.8575H120.897V27.1106H116.771V58Z" fill="white"/>
<path id="Vector_2" d="M108.498 53.8574H97.5192V53.8802H87.3657V57.9999H108.498V53.8574Z" fill="white"/>
<path id="Vector_3" d="M108.33 40.2368V44.4105L92.5012 44.4332H92.3196L87.3657 44.4446V40.1345H92.2449" fill="white"/>
<path id="Vector_4" d="M109.369 31.2957L109.39 27.1106H87.3657V31.3525" fill="white"/>
<path id="Vector_5" d="M50.6263 57.9999H29.4941V53.8802H39.645V53.8574H50.6263V57.9999Z" fill="white"/>
<path id="Vector_6" d="M34.3733 40.2368V40.1345H29.4941V44.4446H34.3733V44.4105H50.4554V40.2368H34.3733Z" fill="white"/>
<path id="Vector_7" d="M29.4941 31.3525V27.1106H51.5156V31.2303H34.3733V31.3525H29.4941Z" fill="white"/>
<path id="Vector_8" d="M10.0793 31.2303H0.5V27.1106H23.5737V31.2303H14.1947V58H10.0793V31.2303Z" fill="white"/>
<path id="Vector_9" d="M65.0636 57.5483L83.1727 27.0425L63.5254 49.8402L65.0636 57.5483Z" fill="white"/>
<path id="Vector_10" d="M102.345 0L63.0396 46.8057L56.1655 20.4395L60.2515 20.485L64.3241 36.4666L102.345 0Z" fill="white"/>
</g>
<defs>
<clipPath id="clip0_655_412">
<rect width="137" height="58" fill="white" transform="translate(0.5)"/>
</clipPath>
</defs>
</svg>
