<svg width="28" height="28" viewBox="0 0 28 28" fill="none" xmlns="http://www.w3.org/2000/svg">
<g id="loan 2">
<path id="Vector" d="M17.7705 10.3824V13.653C17.7705 14.0418 17.7331 14.4248 17.6592 14.8024L17.5732 15.1783V15.1793C17.4378 15.7047 17.2209 16.1645 16.9229 16.5602L16.79 16.7262H16.7891C16.6354 16.9092 16.4634 17.0726 16.2734 17.2164L16.0771 17.3541C15.8812 17.4799 15.6471 17.5895 15.373 17.6813L15.085 17.7672C14.6913 17.8728 14.2538 17.9264 13.7725 17.9264H12.2686V12.7321H13.0146V17.443H13.9424C14.7703 17.443 15.4634 17.1846 16.0098 16.6637L16.1172 16.5563C16.3699 16.2899 16.5706 15.9494 16.7217 15.5397L16.7832 15.36C16.9404 14.8634 17.0175 14.2934 17.0176 13.653V10.3824H17.7705ZM12.793 10.3824C13.1415 10.3824 13.4473 10.4033 13.7109 10.443L13.96 10.4889C14.2702 10.5579 14.5349 10.6761 14.7559 10.8405V10.8395C15.1677 11.147 15.3954 11.7154 15.3955 12.5992V15.5709H14.6494V12.5875C14.6494 12.0123 14.5165 11.5617 14.2158 11.2809L14.0762 11.1715L14.0742 11.1696L13.9287 11.0875C13.7807 11.0125 13.6238 10.9593 13.458 10.9293H13.457C13.2543 10.888 13.0724 10.8658 12.9131 10.8658H10.6719V17.9264H9.9248V10.3824H12.793Z" fill="#2D8600" stroke="#00863A" stroke-width="0.30174"/>
<path id="Vector_2" d="M25.0622 13.8529C25.0622 19.9601 20.1056 24.9167 13.9984 24.9167C7.89116 24.9167 2.93457 19.9601 2.93457 13.8529C2.93457 7.74565 7.89116 2.78906 13.9984 2.78906" stroke="#1F2937" stroke-width="1.65957" stroke-linecap="round" stroke-linejoin="round"/>
<path id="Vector_3" d="M25.0632 7.21458V2.78906H20.6377" stroke="#1F2937" stroke-width="1.65957" stroke-linecap="round" stroke-linejoin="round"/>
<path id="Vector_4" d="M19.5312 8.32098L25.0631 2.78906" stroke="#1F2937" stroke-width="1.65957" stroke-linecap="round" stroke-linejoin="round"/>
</g>
</svg>
