<svg width="22" height="22" viewBox="0 0 22 22" fill="none" xmlns="http://www.w3.org/2000/svg">
<path id="Vector" d="M20.4388 2.74216H16.13V1.10069C16.13 0.98784 16.0376 0.895508 15.9248 0.895508H14.4885C14.3756 0.895508 14.2833 0.98784 14.2833 1.10069V2.74216H7.71745V1.10069C7.71745 0.98784 7.62511 0.895508 7.51226 0.895508H6.07598C5.96313 0.895508 5.8708 0.98784 5.8708 1.10069V2.74216H1.56194C1.10798 2.74216 0.741211 3.10892 0.741211 3.56289V20.5931C0.741211 21.0471 1.10798 21.4138 1.56194 21.4138H20.4388C20.8928 21.4138 21.2595 21.0471 21.2595 20.5931V3.56289C21.2595 3.10892 20.8928 2.74216 20.4388 2.74216ZM19.4129 19.5672H2.58786V9.82098H19.4129V19.5672ZM2.58786 8.07693V4.58881H5.8708V5.81991C5.8708 5.93276 5.96313 6.02509 6.07598 6.02509H7.51226C7.62511 6.02509 7.71745 5.93276 7.71745 5.81991V4.58881H14.2833V5.81991C14.2833 5.93276 14.3756 6.02509 14.4885 6.02509H15.9248C16.0376 6.02509 16.13 5.93276 16.13 5.81991V4.58881H19.4129V8.07693H2.58786Z" fill="#1F2937"/>
</svg>
