<svg width="27" height="28" viewBox="0 0 27 28" fill="none" xmlns="http://www.w3.org/2000/svg">
<g id="loan 1">
<path id="Vector" d="M17.2715 10.5294V13.7999C17.2715 14.1888 17.2341 14.5718 17.1602 14.9493L17.0742 15.3253V15.3263C16.9388 15.8516 16.7219 16.3114 16.4238 16.7072L16.291 16.8732H16.29C16.1363 17.0562 15.9644 17.2196 15.7744 17.3634L15.5781 17.5011C15.3822 17.6269 15.1481 17.7365 14.874 17.8282L14.5859 17.9142C14.1923 18.0198 13.7548 18.0733 13.2734 18.0734H11.7695V12.879H12.5156V17.59H13.4434C14.2713 17.59 14.9644 17.3316 15.5107 16.8107L15.6182 16.7032C15.8709 16.4369 16.0716 16.0964 16.2227 15.6866L16.2842 15.507C16.4414 15.0104 16.5185 14.4404 16.5186 13.7999V10.5294H17.2715ZM12.2939 10.5294C12.6425 10.5294 12.9483 10.5503 13.2119 10.59L13.4609 10.6359C13.7712 10.7049 14.0359 10.8231 14.2568 10.9874V10.9865C14.6686 11.294 14.8964 11.8624 14.8965 12.7462V15.7179H14.1504V12.7345C14.1504 12.1593 14.0175 11.7086 13.7168 11.4279L13.5771 11.3185L13.5752 11.3165L13.4297 11.2345C13.2817 11.1595 13.1248 11.1063 12.959 11.0763H12.958C12.7553 11.035 12.5734 11.0128 12.4141 11.0128H10.1729V18.0734H9.42578V10.5294H12.2939Z" fill="#006AFF" stroke="#006AFF" stroke-width="0.30174"/>
<path id="Vector_2" d="M24.5641 14C24.5641 20.1072 19.6076 25.0638 13.5003 25.0638C7.39312 25.0638 2.43652 20.1072 2.43652 14C2.43652 7.89274 7.39312 2.93616 13.5003 2.93616" stroke="#1F2937" stroke-width="1.65957" stroke-linecap="round" stroke-linejoin="round"/>
<path id="Vector_3" d="M19.2336 3.03664L19.2336 7.46216L23.6592 7.46216" stroke="#1F2937" stroke-width="1.65957" stroke-linecap="round" stroke-linejoin="round"/>
<path id="Vector_4" d="M24.7656 1.93025L19.2337 7.46216" stroke="#1F2937" stroke-width="1.65957" stroke-linecap="round" stroke-linejoin="round"/>
</g>
</svg>
