<svg width="20" height="25" viewBox="0 0 20 25" fill="none" xmlns="http://www.w3.org/2000/svg">
<path id="Vector" d="M19.2463 6.26674L13.4384 0.262277C13.2764 0.0948661 13.0578 0 12.8284 0H1.36364C0.885937 0 0.5 0.398996 0.5 0.892857V24.1071C0.5 24.601 0.885937 25 1.36364 25H18.6364C19.1141 25 19.5 24.601 19.5 24.1071V6.90011C19.5 6.66295 19.4082 6.43415 19.2463 6.26674ZM17.5082 7.31027H12.429V2.05915L17.5082 7.31027ZM17.5568 22.9911H2.44318V2.00893H10.5938V8.03571C10.5938 8.34651 10.7132 8.64459 10.9258 8.86436C11.1383 9.08412 11.4266 9.20759 11.7273 9.20759H17.5568V22.9911ZM10.8636 11.3839C10.8636 11.2612 10.7665 11.1607 10.6477 11.1607H9.35227C9.23352 11.1607 9.13636 11.2612 9.13636 11.3839V14.3973H6.22159C6.10284 14.3973 6.00568 14.4978 6.00568 14.6205V15.9598C6.00568 16.0826 6.10284 16.183 6.22159 16.183H9.13636V19.1964C9.13636 19.3192 9.23352 19.4196 9.35227 19.4196H10.6477C10.7665 19.4196 10.8636 19.3192 10.8636 19.1964V16.183H13.7784C13.8972 16.183 13.9943 16.0826 13.9943 15.9598V14.6205C13.9943 14.4978 13.8972 14.3973 13.7784 14.3973H10.8636V11.3839Z" fill="#006AFF"/>
</svg>
